<svg id="Capa_1" enable-background="new 0 0 512 512" height="512" viewBox="0 0 512 512" width="512" xmlns="http://www.w3.org/2000/svg"><g><path d="m127.002 268.143 10-213.76c0-2.761 2.239-5 5-5h227.987c2.761 0 5 2.239 5 5l10 215.142-77.827 45.139z" fill="#f07281"/><path d="m383.421 235.784 1.565 33.746-77.823 45.135-180.158-46.525 10-213.76c0-2.761 2.239-5 5-5h53.99c.731 21.723.933 99.501.989 140.765.019 14.032 9.748 26.24 23.458 29.227 7.133 1.554 14.156 3.663 21.033 6.318l23.5 9.09h51.28c15.51 0 29.51 6.56 39.38 17.05z" fill="#eb5569"/><path d="m501.266 230.194c-6.648-11.515-21.373-15.461-32.889-8.813l-128.045 73.927h-.881c.57-2.054.881-4.216.881-6.451 0-13.297-10.779-24.076-24.076-24.076h-56.874l-28.727-11.103c-12.918-4.993-26.648-7.554-40.497-7.554-72.564 0-108.697 77.214-108.697 77.214l71.622 71.621h149.991c13.393 0 26.4-4.481 36.951-12.728l152.426-119.149c11.518-6.648 15.463-21.373 8.815-32.888z" fill="#fff3de"/><path d="m168.852 340.032 57.214 54.928h-72.981l-71.619-71.62s36.13-77.22 108.69-77.22c12.28 0 24.47 2.02 36.08 5.96-28.3 10.271-48.549 31.812-60.777 48.536-8.887 12.155-7.468 28.989 3.393 39.416z" fill="#ffe5c2"/><path d="m61.989 287.873h61.073v179.428h-61.073z" fill="#8ac9fe" transform="matrix(.707 -.707 .707 .707 -239.894 176.018)"/><g><path d="m507.766 226.446c-4.218-7.306-11.026-12.534-19.171-14.718-8.15-2.185-16.658-1.065-23.965 3.153l-72.72 41.988-9.422-202.696c-.114-6.795-5.677-12.288-12.498-12.288h-29.87c-4.143 0-7.5 3.358-7.5 7.5s3.357 7.5 7.5 7.5h27.479l9.688 208.427-30.061 17.357c-2.883-14.46-15.669-25.392-30.964-25.392h-55.474l-27.422-10.598c-13.835-5.347-28.369-8.058-43.2-8.058-19.182 0-37.743 5.165-54.972 15.144l1.961-41.849c.193-4.138-3.004-7.649-7.142-7.843-4.153-.208-7.648 3.003-7.843 7.141l-2.489 53.126c-5.714 4.516-11.241 9.602-16.545 15.258-11.065 11.798-18.86 23.538-23.464 31.333l-23.682-23.68c-1.407-1.407-3.314-2.197-5.304-2.197s-3.896.79-5.304 2.197l-43.185 43.186c-2.929 2.929-2.929 7.678 0 10.606l126.874 126.875c1.407 1.407 3.314 2.197 5.304 2.197s3.896-.79 5.304-2.197l43.186-43.186c2.929-2.929 2.929-7.678 0-10.606l-11.669-11.669h50.726c4.143 0 7.5-3.358 7.5-7.5s-3.357-7.5-7.5-7.5h-65.726l-65.523-65.523c8.902-15.981 42.419-68.311 99.493-68.311 12.975 0 25.689 2.372 37.792 7.049l28.728 11.103c.806.311 1.679.477 2.541.496.055.001 57.036.008 57.036.008 9.141 0 16.576 7.436 16.576 16.576s-7.436 16.576-16.576 16.576h-109.196c-4.143 0-7.5 3.358-7.5 7.5s3.357 7.5 7.5 7.5h109.194c13.088 0 24.34-8.005 29.122-19.376l126.746-73.183c3.836-2.214 8.302-2.804 12.579-1.655 4.276 1.146 7.852 3.892 10.068 7.732 1.454 2.518 2.224 5.373 2.224 8.257 0 5.919-3.175 11.426-8.286 14.373-.304.175-.596.372-.873.588l-152.431 119.151c-9.185 7.183-20.666 11.138-32.33 11.138h-48.47c-4.143 0-7.5 3.358-7.5 7.5s3.357 7.5 7.5 7.5h48.47c14.997 0 29.76-5.086 41.569-14.321l152.042-118.848c9.459-5.68 15.309-16.004 15.309-27.081 0-5.516-1.465-10.967-4.234-15.76zm-373.392 225.562-116.267-116.268 32.579-32.579 116.268 116.268z"/><path d="m130.84 186.368c.12.006.238.008.356.008 3.98 0 7.298-3.132 7.486-7.15l5.719-122.34h163.029c4.143 0 7.5-3.358 7.5-7.5s-3.357-7.5-7.5-7.5h-165.42c-6.821 0-12.384 5.492-12.498 12.287l-5.813 124.353c-.194 4.138 3.003 7.648 7.141 7.842z"/><path d="m302.554 102.248v20.667c0 23.802-19.364 43.167-43.166 43.167-23.803 0-43.167-19.364-43.167-43.167v-20.667c0-4.142-3.357-7.5-7.5-7.5s-7.5 3.358-7.5 7.5v20.667c0 32.073 26.094 58.167 58.167 58.167s58.166-26.093 58.166-58.167v-20.667c0-4.142-3.357-7.5-7.5-7.5s-7.5 3.358-7.5 7.5z"/></g></g></svg>